<svg width="24" height="24" viewBox="0 0 24 24" fill="none" xmlns="http://www.w3.org/2000/svg">
<path d="M14 18C14.2652 18 14.5196 17.8947 14.7071 17.7071C14.8946 17.5196 15 17.2652 15 17V15C15 14.7348 14.8946 14.4805 14.7071 14.2929C14.5196 14.1054 14.2652 14 14 14C13.7348 14 13.4804 14.1054 13.2929 14.2929C13.1054 14.4805 13 14.7348 13 15V17C13 17.2652 13.1054 17.5196 13.2929 17.7071C13.4804 17.8947 13.7348 18 14 18ZM10 18C10.2652 18 10.5196 17.8947 10.7071 17.7071C10.8946 17.5196 11 17.2652 11 17V15C11 14.7348 10.8946 14.4805 10.7071 14.2929C10.5196 14.1054 10.2652 14 10 14C9.73479 14 9.48044 14.1054 9.2929 14.2929C9.10536 14.4805 9.00001 14.7348 9.00001 15V17C9.00001 17.2652 9.10536 17.5196 9.2929 17.7071C9.48044 17.8947 9.73479 18 10 18ZM19 6.00003H17.62L15.89 2.55003C15.8371 2.42308 15.7587 2.3084 15.6595 2.21316C15.5603 2.11791 15.4425 2.04414 15.3135 1.99647C15.1846 1.94879 15.0471 1.92823 14.9098 1.93607C14.7725 1.94392 14.6383 1.97999 14.5156 2.04204C14.3929 2.10408 14.2843 2.19078 14.1966 2.2967C14.1089 2.40261 14.044 2.52548 14.0059 2.65762C13.9679 2.78976 13.9575 2.92833 13.9754 3.06467C13.9933 3.20102 14.0391 3.3322 14.11 3.45003L15.38 6.00003H8.62001L9.89001 3.45003C9.98707 3.21693 9.99237 2.95575 9.90483 2.71891C9.81729 2.48208 9.6434 2.28712 9.41807 2.17319C9.19274 2.05926 8.93265 2.03479 8.69002 2.10469C8.44739 2.17458 8.24019 2.33368 8.11001 2.55003L6.38001 6.00003H5.00001C4.2932 6.01078 3.61288 6.27077 3.07906 6.73416C2.54523 7.19755 2.19218 7.83455 2.08218 8.53283C1.97217 9.23112 2.11228 9.94581 2.47779 10.5509C2.8433 11.1559 3.41073 11.6125 4.08001 11.84L4.82001 19.3C4.89463 20.0426 5.24335 20.7307 5.79808 21.2299C6.35281 21.7292 7.07371 22.0038 7.82001 22H16.2C16.9463 22.0038 17.6672 21.7292 18.2219 21.2299C18.7767 20.7307 19.1254 20.0426 19.2 19.3L19.94 11.84C20.6107 11.6118 21.1791 11.1536 21.5443 10.5465C21.9096 9.93942 22.0482 9.22266 21.9356 8.52317C21.823 7.82368 21.4665 7.18661 20.9292 6.7248C20.3919 6.26299 19.7085 6.00624 19 6.00003V6.00003ZM17.19 19.1C17.1651 19.3476 17.0489 19.5769 16.864 19.7433C16.6791 19.9098 16.4388 20.0013 16.19 20H7.81001C7.56124 20.0013 7.32094 19.9098 7.13603 19.7433C6.95112 19.5769 6.83488 19.3476 6.81001 19.1L6.10001 12H17.9L17.19 19.1ZM19 10H5.00001C4.73479 10 4.48044 9.89467 4.2929 9.70713C4.10536 9.5196 4.00001 9.26524 4.00001 9.00003C4.00001 8.73481 4.10536 8.48046 4.2929 8.29292C4.48044 8.10538 4.73479 8.00003 5.00001 8.00003H19C19.2652 8.00003 19.5196 8.10538 19.7071 8.29292C19.8946 8.48046 20 8.73481 20 9.00003C20 9.26524 19.8946 9.5196 19.7071 9.70713C19.5196 9.89467 19.2652 10 19 10Z" fill="#B8B9C6"/>
</svg>
