<svg width="22" height="22" viewBox="0 0 22 22" fill="none" xmlns="http://www.w3.org/2000/svg">
<path d="M20.1359 8.91389C20.0781 8.75031 19.9729 8.60663 19.8332 8.50028C19.6935 8.39392 19.5251 8.32946 19.3486 8.31471L14.1399 7.57245L11.8056 2.94894C11.7306 2.79774 11.6136 2.67022 11.4679 2.581C11.3222 2.49178 11.1537 2.44446 10.9817 2.44446C10.8097 2.44446 10.6412 2.49178 10.4955 2.581C10.3498 2.67022 10.2328 2.79774 10.1578 2.94894L7.8235 7.5635L2.61476 8.31471C2.44533 8.33824 2.28605 8.40768 2.15499 8.51517C2.02392 8.62266 1.92633 8.76389 1.87327 8.92283C1.8247 9.07815 1.82034 9.24345 1.86066 9.401C1.90098 9.55856 1.98445 9.70241 2.10212 9.81713L5.88281 13.3943L4.96739 18.4739C4.93043 18.6424 4.9441 18.8178 5.00674 18.9789C5.06938 19.14 5.17834 19.2799 5.32049 19.382C5.46265 19.484 5.63196 19.5437 5.80805 19.554C5.98414 19.5642 6.1595 19.5246 6.31306 19.4397L10.9817 17.052L15.6503 19.4397C15.7788 19.5106 15.9239 19.5475 16.0714 19.5471C16.2654 19.5477 16.4545 19.4882 16.6115 19.3771C16.7536 19.2778 16.8635 19.1407 16.9284 18.9823C16.9933 18.8238 17.0104 18.6505 16.9777 18.4828L16.0623 13.4033L19.843 9.82607C19.9751 9.71668 20.0728 9.5729 20.1247 9.41143C20.1765 9.24996 20.1804 9.07743 20.1359 8.91389ZM14.5061 12.4911C14.4001 12.5916 14.3206 12.7157 14.2744 12.8527C14.2282 12.9897 14.2166 13.1357 14.2406 13.278L14.8997 17.0341L11.4577 15.2455C11.324 15.1809 11.1767 15.1472 11.0275 15.1472C10.8782 15.1472 10.731 15.1809 10.5972 15.2455L7.15525 17.0341L7.81435 13.278C7.83837 13.1357 7.82677 12.9897 7.78054 12.8527C7.73431 12.7157 7.65483 12.5916 7.54888 12.4911L4.80261 9.80818L8.65654 9.26266C8.80483 9.24251 8.94581 9.18713 9.0671 9.10138C9.18839 9.01563 9.28631 8.90212 9.35226 8.7708L10.9817 5.36354L12.7027 8.77974C12.7686 8.91106 12.8666 9.02457 12.9878 9.11032C13.1091 9.19608 13.2501 9.25145 13.3984 9.27161L17.2523 9.81713L14.5061 12.4911Z" fill="#B8B9C6"/>
</svg>
