<svg width="30" height="30" viewBox="0 0 30 30" fill="none" xmlns="http://www.w3.org/2000/svg">
<rect width="30" height="30" rx="5" fill="#404CBD"/>
<path d="M21.769 15.9287C21.5702 15.9287 21.3625 15.8653 21.1638 15.82C20.7614 15.731 20.3659 15.613 19.9805 15.4667C19.5615 15.3138 19.1009 15.3217 18.6874 15.489C18.2738 15.6562 17.9366 15.9709 17.7405 16.3725L17.5418 16.7802C16.662 16.2894 15.8536 15.6798 15.1392 14.9684C14.4299 14.2519 13.8221 13.4411 13.3327 12.5588L13.712 12.3052C14.1125 12.1085 14.4263 11.7703 14.5931 11.3555C14.7598 10.9408 14.7677 10.4788 14.6153 10.0586C14.4719 9.67127 14.3542 9.27484 14.263 8.87191C14.2179 8.67261 14.1817 8.46426 14.1546 8.25591C14.0449 7.61783 13.7117 7.04 13.2149 6.62646C12.7181 6.21293 12.0904 5.99087 11.4449 6.00029H8.73517C8.3459 5.99662 7.96041 6.07712 7.60495 6.2363C7.24949 6.39547 6.9324 6.62959 6.67526 6.92272C6.41813 7.21585 6.22699 7.5611 6.11485 7.93497C6.00272 8.30885 5.97222 8.70256 6.02544 9.08932C6.50663 12.8844 8.2348 16.4105 10.937 19.1107C13.6391 21.8109 17.1613 23.5312 20.947 24H21.2902C21.9563 24.001 22.5994 23.7559 23.0967 23.3115C23.3825 23.0552 23.6108 22.741 23.7665 22.3896C23.9222 22.0383 24.0017 21.6578 24 21.2733V18.5557C23.9889 17.9265 23.7604 17.3206 23.3536 16.8415C22.9467 16.3624 22.3866 16.0397 21.769 15.9287ZM22.2206 21.3639C22.2204 21.4925 22.1929 21.6196 22.14 21.7368C22.087 21.8539 22.0098 21.9584 21.9135 22.0433C21.8129 22.1312 21.6949 22.1968 21.5672 22.2358C21.4396 22.2748 21.3052 22.2864 21.1728 22.2698C17.7901 21.8348 14.648 20.2827 12.2422 17.8584C9.8364 15.4341 8.30379 12.2756 7.88612 8.88097C7.87175 8.74827 7.88434 8.61403 7.92316 8.48636C7.96197 8.35869 8.02619 8.24023 8.11193 8.13815C8.19658 8.04152 8.30077 7.96408 8.41757 7.91097C8.53438 7.85787 8.66112 7.83032 8.78936 7.83015H11.4991C11.7091 7.82546 11.9142 7.89436 12.0791 8.02498C12.244 8.1556 12.3583 8.33977 12.4023 8.54579C12.4385 8.7934 12.4836 9.03798 12.5378 9.27955C12.6422 9.75708 12.781 10.2264 12.9533 10.6837L11.6888 11.2725C11.5807 11.3222 11.4834 11.3929 11.4026 11.4805C11.3218 11.568 11.259 11.6707 11.2179 11.7827C11.1768 11.8946 11.1581 12.0136 11.1629 12.1328C11.1678 12.252 11.1961 12.3691 11.2462 12.4773C12.5461 15.2699 14.7844 17.5147 17.5689 18.8184C17.7888 18.909 18.0354 18.909 18.2553 18.8184C18.368 18.778 18.4715 18.7155 18.5599 18.6347C18.6483 18.5538 18.7198 18.4561 18.7702 18.3473L19.3302 17.0791C19.7972 17.2466 20.2737 17.3857 20.7573 17.4958C20.9982 17.5502 21.2421 17.5955 21.489 17.6317C21.6944 17.6759 21.878 17.7905 22.0083 17.9559C22.1385 18.1212 22.2072 18.3269 22.2025 18.5376L22.2206 21.3639Z" fill="white"/>
</svg>
