<svg width="24" height="24" viewBox="0 0 24 24" fill="none" xmlns="http://www.w3.org/2000/svg">
<g clip-path="url(#clip0_352_705)">
<path d="M19.2431 5.44675H19.2099V4.69455C19.8536 4.51769 20.328 3.92758 20.328 3.22844C20.328 2.39004 19.6459 1.70791 18.8075 1.70791H15.4036C14.5652 1.70791 13.8831 2.39004 13.8831 3.22844C13.8831 3.92758 14.3576 4.51764 15.0013 4.69455V5.44675H9.95245V4.00408C9.95245 1.96774 8.29552 0.311035 6.25894 0.311035H5.0347C4.94146 0.311035 4.85204 0.348075 4.78611 0.414005C4.72018 0.479936 4.68314 0.569357 4.68314 0.662598V3.56214C4.68314 3.65538 4.72018 3.74481 4.78611 3.81074C4.85204 3.87667 4.94146 3.91371 5.0347 3.91371H6.25894C6.309 3.91371 6.34978 3.95425 6.34978 4.00408V5.44671H5.70727C3.08428 5.44671 0.950344 7.58064 0.950344 10.2036V16.0918C0.353859 16.8858 0 17.8719 0 18.9391C0 21.5583 2.13084 23.6891 4.74998 23.6891C6.47869 23.6891 7.99448 22.7607 8.82544 21.3764H16.524L16.3103 22.049C16.1874 22.4359 16.2544 22.8458 16.4941 23.1735C16.7339 23.5012 17.1042 23.6891 17.5103 23.6891H18.7371C19.1431 23.6891 19.5135 23.5012 19.7532 23.1735C19.993 22.8458 20.0599 22.436 19.937 22.049L19.7159 21.353C22.1177 21.1148 24 19.0829 24 16.6195V10.2037C24 7.58069 21.8661 5.44675 19.2431 5.44675ZM14.5863 3.22844C14.5863 2.77774 14.9529 2.41104 15.4037 2.41104H18.8076C19.2583 2.41104 19.625 2.77774 19.625 3.22844C19.625 3.67914 19.2583 4.04585 18.8076 4.04585H15.4037C14.9529 4.04585 14.5863 3.67914 14.5863 3.22844ZM15.7044 4.74897H18.5067V5.44671H15.7044V4.74897ZM6.25894 3.21058H5.38627V1.01421H6.25894C7.90786 1.01421 9.24933 2.35549 9.24933 4.00413V5.44675H7.05291V4.00408C7.05291 3.56655 6.69675 3.21058 6.25894 3.21058ZM4.74998 22.9859C2.51855 22.9859 0.703125 21.1705 0.703125 18.9391C0.703125 16.7077 2.51855 14.8923 4.74998 14.8923C6.98142 14.8923 8.7968 16.7077 8.7968 18.9391C8.7968 21.1705 6.98142 22.9859 4.74998 22.9859ZM19.1857 22.7583C19.0799 22.903 18.9164 22.9859 18.7371 22.9859H17.5103C17.331 22.9859 17.1675 22.903 17.0617 22.7583C16.9558 22.6136 16.9262 22.4327 16.9806 22.2618L17.2618 21.3766H18.9856L19.2668 22.2618C19.3211 22.4327 19.2915 22.6136 19.1857 22.7583ZM23.2969 16.6195C23.2969 18.8547 21.4783 20.6733 19.2431 20.6733H9.17212C9.28474 20.3871 9.36905 20.0905 9.42384 19.7879H19.2431C20.9902 19.7879 22.4115 18.3666 22.4115 16.6196V10.2038C22.4119 9.83764 22.3485 9.47419 22.224 9.12982C22.1923 9.04216 22.1271 8.97069 22.0426 8.93112C21.9582 8.89156 21.8615 8.88714 21.7739 8.91883C21.7304 8.93453 21.6905 8.95864 21.6564 8.98976C21.6223 9.02088 21.5947 9.05841 21.5751 9.10022C21.5555 9.14202 21.5443 9.18728 21.5422 9.2334C21.5401 9.27952 21.5471 9.3256 21.5628 9.36902C21.6595 9.6367 21.7088 9.9192 21.7083 10.2038V15.6143H19.4973C19.3031 15.6143 19.1457 15.7717 19.1457 15.9659C19.1457 16.16 19.3031 16.3174 19.4973 16.3174H21.7083V16.6196C21.7083 17.9789 20.6025 19.0847 19.2431 19.0847H9.49748C9.49894 19.0363 9.49992 18.9878 9.49992 18.9391C9.49992 17.9706 9.20836 17.0691 8.70872 16.3172H14.8073C15.0015 16.3172 15.1589 16.1598 15.1589 15.9656C15.1589 15.7715 15.0015 15.6141 14.8073 15.6141H8.13853C7.27603 14.7353 6.07566 14.1891 4.74998 14.1891C4.22306 14.1891 3.71592 14.2755 3.24188 14.4347V10.2038C3.24188 8.84449 4.34775 7.73866 5.70703 7.73866H19.2431C19.8459 7.73849 20.4277 7.95993 20.8779 8.36083C20.9478 8.42131 21.0387 8.45184 21.1309 8.44583C21.2231 8.43981 21.3092 8.39773 21.3707 8.32868C21.4321 8.25964 21.4639 8.16918 21.4591 8.07688C21.4544 7.98459 21.4135 7.89788 21.3453 7.8355C20.7664 7.32001 20.0182 7.0353 19.2431 7.03553H5.70703C3.96 7.03553 2.53875 8.45683 2.53875 10.2038V14.7363C2.2219 14.9037 1.92492 15.1063 1.65342 15.3402V10.2037C1.65342 7.96839 3.47198 6.14988 5.70722 6.14988H19.243C21.4783 6.14988 23.2968 7.96839 23.2968 10.2037V16.6195H23.2969Z" fill="black"/>
<path d="M4.74994 16.1485C3.21127 16.1485 1.95947 17.4003 1.95947 18.939C1.95947 20.478 3.21127 21.7299 4.74994 21.7299C5.24861 21.7301 5.7382 21.5965 6.16768 21.3431C6.24666 21.295 6.30353 21.2178 6.32598 21.1281C6.34843 21.0384 6.33464 20.9435 6.28761 20.8639C6.24058 20.7843 6.16409 20.7264 6.0747 20.7028C5.98531 20.6792 5.89022 20.6918 5.81002 20.7378C5.48888 20.9272 5.12282 21.027 4.74999 21.0269C3.59902 21.0269 2.66264 20.0903 2.66264 18.939C2.66264 17.7881 3.59907 16.8517 4.74999 16.8517C5.90124 16.8517 6.8378 17.7881 6.8378 18.939C6.8378 19.2599 6.76697 19.5678 6.62729 19.8541C6.58642 19.9379 6.58052 20.0345 6.61087 20.1227C6.64123 20.2108 6.70535 20.2833 6.78914 20.3242C6.83064 20.3445 6.87572 20.3563 6.9218 20.3591C6.96788 20.362 7.01407 20.3557 7.05773 20.3407C7.10138 20.3256 7.14165 20.3021 7.17623 20.2715C7.21081 20.241 7.23902 20.2038 7.25925 20.1623C7.44614 19.7791 7.54093 19.3675 7.54093 18.939C7.54088 17.4003 6.28885 16.1485 4.74994 16.1485ZM11.3076 8.71411H5.74097C4.85841 8.71411 4.14038 9.4321 4.14038 10.3147V12.2207C4.14038 13.1033 4.85836 13.8213 5.74097 13.8213H11.3076C12.1901 13.8213 12.9082 13.1033 12.9082 12.2207V10.3147C12.9081 9.43214 12.1901 8.71411 11.3076 8.71411ZM12.205 12.2207C12.205 12.7156 11.8024 13.1182 11.3075 13.1182H5.74097C5.24611 13.1182 4.8435 12.7156 4.8435 12.2207V10.3147C4.8435 9.81985 5.24611 9.41724 5.74097 9.41724H11.3076C11.8024 9.41724 12.205 9.81985 12.205 10.3147V12.2207H12.205Z" fill="black"/>
<path d="M6.91889 9.93741C6.18539 9.93741 5.58862 10.5341 5.58862 11.2676C5.58862 12.0011 6.18534 12.5978 6.91889 12.5978C7.65234 12.5978 8.24911 12.0011 8.24911 11.2676C8.24911 10.5341 7.65234 9.93741 6.91889 9.93741ZM6.91889 11.8948C6.57309 11.8948 6.29175 11.6135 6.29175 11.2677C6.29175 10.9219 6.57309 10.6406 6.91889 10.6406C7.26469 10.6406 7.54598 10.9219 7.54598 11.2677C7.54598 11.6135 7.26464 11.8948 6.91889 11.8948ZM10.1295 9.93741C9.396 9.93741 8.79923 10.5341 8.79923 11.2676C8.79923 12.0011 9.39595 12.5978 10.1295 12.5978C10.863 12.5978 11.4597 12.0011 11.4597 11.2676C11.4597 10.5341 10.863 9.93741 10.1295 9.93741ZM10.1295 11.8948C9.78365 11.8948 9.50236 11.6135 9.50236 11.2677C9.50236 10.9219 9.78365 10.6406 10.1295 10.6406C10.4752 10.6406 10.7566 10.9219 10.7566 11.2677C10.7566 11.6135 10.4752 11.8948 10.1295 11.8948ZM18.6656 12.4657H17.591C17.5876 12.4657 17.5786 12.4657 17.5707 12.4562C17.5627 12.4468 17.5643 12.4379 17.5649 12.4347L18.1177 9.234C18.1783 8.88291 17.9876 8.55075 17.6538 8.42625C17.3199 8.3017 16.9582 8.42775 16.7741 8.73277L14.0585 13.2312C13.8074 13.6472 13.8 14.1483 14.0389 14.5715C14.2778 14.9947 14.7105 15.2474 15.1965 15.2474H16.0865C16.0899 15.2474 16.0991 15.2474 16.107 15.2572C16.115 15.267 16.113 15.276 16.1123 15.2794L15.6244 17.5606C15.5519 17.8995 15.7139 18.2262 16.0275 18.3735C16.1306 18.4221 16.2382 18.4455 16.3438 18.4455C16.5593 18.4455 16.7666 18.3477 16.9106 18.1652L19.7091 14.6183C20.0272 14.2149 20.0857 13.6773 19.8616 13.215C19.6376 12.7528 19.1793 12.4657 18.6656 12.4657ZM19.1572 14.1827L16.3588 17.7297C16.3498 17.7411 16.3457 17.7462 16.3267 17.7373C16.3077 17.7284 16.309 17.7219 16.3121 17.7078L16.8 15.4265C16.823 15.3202 16.8218 15.21 16.7965 15.1042C16.7712 14.9984 16.7225 14.8996 16.6539 14.8151C16.5856 14.7304 16.4992 14.662 16.401 14.6152C16.3028 14.5683 16.1954 14.5441 16.0866 14.5443H15.1966C14.9677 14.5443 14.7639 14.4253 14.6513 14.2259C14.5388 14.0265 14.5423 13.7905 14.6605 13.5945L17.3761 9.09614C17.3846 9.08212 17.3873 9.0773 17.4081 9.08498C17.4286 9.09267 17.4277 9.09811 17.4249 9.11433L16.872 12.3151C16.8539 12.4199 16.8589 12.5274 16.8867 12.63C16.9145 12.7327 16.9644 12.828 17.033 12.9092C17.1014 12.9906 17.1868 13.056 17.2832 13.1009C17.3796 13.1457 17.4847 13.1689 17.591 13.1688H18.6656C18.9112 13.1688 19.1218 13.3008 19.229 13.5218C19.3362 13.7428 19.3093 13.9899 19.1572 14.1827Z" fill="black"/>
</g>
<defs>
<clipPath id="clip0_352_705">
<rect width="24" height="24" fill="white"/>
</clipPath>
</defs>
</svg>
