<svg width="18" height="17" viewBox="0 0 18 17" fill="none" xmlns="http://www.w3.org/2000/svg">
<path fill-rule="evenodd" clip-rule="evenodd" d="M13.3799 11.6102C15.578 8.78716 15.3795 4.70285 12.7843 2.10765C9.97407 -0.702549 5.41784 -0.702549 2.60765 2.10765C-0.202549 4.91784 -0.202549 9.47407 2.60765 12.2843C5.20285 14.8795 9.28716 15.078 12.1102 12.8799C12.1224 12.8937 12.1351 12.9071 12.1482 12.9203L15.9645 16.7365C16.3157 17.0878 16.8853 17.0878 17.2365 16.7365C17.5878 16.3853 17.5878 15.8157 17.2365 15.4645L13.4203 11.6482C13.4071 11.6351 13.3937 11.6224 13.3799 11.6102ZM11.5122 3.37973C13.6198 5.48737 13.6198 8.90455 11.5122 11.0122C9.40455 13.1198 5.98737 13.1198 3.87973 11.0122C1.77208 8.90455 1.77208 5.48737 3.87973 3.37973C5.98737 1.27208 9.40455 1.27208 11.5122 3.37973Z" fill="#80839F"/>
</svg>
