<svg width="36" height="36" viewBox="0 0 36 36" fill="none" xmlns="http://www.w3.org/2000/svg">
<path d="M32.9497 14.5863C32.8551 14.3187 32.683 14.0836 32.4544 13.9095C32.2257 13.7355 31.9502 13.63 31.6614 13.6059L23.138 12.3913L19.3182 4.82551C19.1956 4.5781 19.0041 4.36944 18.7656 4.22344C18.5272 4.07744 18.2515 4 17.9701 4C17.6887 4 17.413 4.07744 17.1745 4.22344C16.9361 4.36944 16.7446 4.5781 16.6219 4.82551L12.8021 12.3766L4.2787 13.6059C4.00147 13.6444 3.74082 13.758 3.52635 13.9339C3.31188 14.1098 3.15218 14.3409 3.06536 14.601C2.98588 14.8551 2.97875 15.1256 3.04473 15.3834C3.1107 15.6413 3.24729 15.8767 3.43985 16.0644L9.62643 21.9179L8.12846 30.23C8.06799 30.5057 8.09035 30.7927 8.19285 31.0563C8.29536 31.3199 8.47365 31.549 8.70627 31.7159C8.93889 31.8829 9.21594 31.9806 9.50409 31.9974C9.79223 32.0142 10.0792 31.9493 10.3305 31.8105L17.9701 27.9032L25.6097 31.8105C25.8199 31.9263 26.0574 31.9868 26.2987 31.9861C26.616 31.9872 26.9255 31.8898 27.1825 31.708C27.4149 31.5454 27.5948 31.3212 27.701 31.0619C27.8072 30.8026 27.8352 30.519 27.7817 30.2446L26.2838 21.9326L32.4703 16.079C32.6866 15.9 32.8465 15.6647 32.9313 15.4005C33.0162 15.1363 33.0225 14.854 32.9497 14.5863Z" fill="#F0A719"/>
</svg>
