<svg width="20" height="20" viewBox="0 0 20 20" fill="none" xmlns="http://www.w3.org/2000/svg">
<path d="M18.3055 8.10347C18.2529 7.95476 18.1573 7.82415 18.0303 7.72746C17.9032 7.63077 17.7502 7.57217 17.5898 7.55876L12.8545 6.88397L10.7324 2.68079C10.6643 2.54333 10.5579 2.42741 10.4254 2.3463C10.293 2.26519 10.1398 2.22217 9.98345 2.22217C9.82712 2.22217 9.67395 2.26519 9.54148 2.3463C9.40902 2.42741 9.30262 2.54333 9.23447 2.68079L7.11236 6.87584L2.37714 7.55876C2.22312 7.58015 2.07832 7.64328 1.95917 7.741C1.84002 7.83872 1.75129 7.96711 1.70306 8.1116C1.6589 8.25279 1.65494 8.40307 1.6916 8.5463C1.72825 8.68953 1.80413 8.82031 1.91111 8.92459L5.3481 12.1766L4.51589 16.7944C4.4823 16.9476 4.49472 17.107 4.55167 17.2534C4.60862 17.3999 4.70766 17.5271 4.8369 17.6199C4.96613 17.7127 5.12005 17.767 5.28013 17.7763C5.44021 17.7856 5.59964 17.7495 5.73923 17.6724L9.98345 15.5017L14.2277 17.6724C14.3445 17.7368 14.4764 17.7704 14.6105 17.77C14.7868 17.7706 14.9587 17.7165 15.1015 17.6155C15.2306 17.5252 15.3306 17.4006 15.3895 17.2565C15.4485 17.1125 15.4641 16.9549 15.4344 16.8025L14.6022 12.1847L18.0392 8.93272C18.1593 8.83328 18.2481 8.70257 18.2953 8.55578C18.3424 8.40899 18.3459 8.25214 18.3055 8.10347Z" fill="#F0A719"/>
</svg>
