<svg width="192" height="34" viewBox="0 0 192 34" fill="none" xmlns="http://www.w3.org/2000/svg">
<rect width="192" height="34" rx="17" fill="#404CBD"/>
<rect width="183" height="34" rx="17" fill="#E6466C"/>
<path d="M0 17C0 7.61116 7.61116 0 17 0H155C164.389 0 172 7.61116 172 17C172 26.3888 164.389 34 155 34H0V17Z" fill="#35395F"/>
<rect x="136" width="36" height="34" rx="17" fill="white"/>
<path d="M13.32 23L16.952 11.48H19.776L23.408 23H21.424L18.128 12.664H18.56L15.304 23H13.32ZM15.344 20.504V18.704H21.392V20.504H15.344ZM25.3344 23V11.48H30.0944C30.2064 11.48 30.3504 11.4853 30.5264 11.496C30.7024 11.5013 30.865 11.5173 31.0144 11.544C31.681 11.6453 32.2304 11.8667 32.6624 12.208C33.0997 12.5493 33.4224 12.9813 33.6304 13.504C33.8437 14.0213 33.9504 14.5973 33.9504 15.232C33.9504 15.8613 33.8437 16.4373 33.6304 16.96C33.417 17.4773 33.0917 17.9067 32.6544 18.248C32.2224 18.5893 31.6757 18.8107 31.0144 18.912C30.865 18.9333 30.6997 18.9493 30.5184 18.96C30.3424 18.9707 30.201 18.976 30.0944 18.976H27.2624V23H25.3344ZM27.2624 17.176H30.0144C30.121 17.176 30.241 17.1707 30.3744 17.16C30.5077 17.1493 30.6304 17.128 30.7424 17.096C31.0624 17.016 31.313 16.8747 31.4944 16.672C31.681 16.4693 31.8117 16.24 31.8864 15.984C31.9664 15.728 32.0064 15.4773 32.0064 15.232C32.0064 14.9867 31.9664 14.736 31.8864 14.48C31.8117 14.2187 31.681 13.9867 31.4944 13.784C31.313 13.5813 31.0624 13.44 30.7424 13.36C30.6304 13.328 30.5077 13.3093 30.3744 13.304C30.241 13.2933 30.121 13.288 30.0144 13.288H27.2624V17.176ZM36.0331 23V11.48H43.4731V13.288H37.9611V16.128H42.5131V17.936H37.9611V21.192H43.4731V23H36.0331ZM45.8725 23V11.48H47.8005V16.328H53.2565V11.48H55.1765V23H53.2565V18.136H47.8005V23H45.8725ZM57.2834 24.92V21.192C57.6567 21.192 57.9687 21.0987 58.2194 20.912C58.47 20.7253 58.67 20.4667 58.8194 20.136C58.974 19.8053 59.094 19.4213 59.1794 18.984C59.2647 18.5413 59.3314 18.072 59.3794 17.576C59.438 16.92 59.4887 16.2773 59.5314 15.648C59.574 15.0133 59.614 14.3573 59.6514 13.68C59.694 12.9973 59.742 12.2587 59.7954 11.464L67.3074 11.48V21.192H68.1714V24.92H66.2514V23H59.2114V24.92H57.2834ZM60.2834 21.192H65.3794V13.288L61.5554 13.272C61.518 13.832 61.486 14.3547 61.4594 14.84C61.438 15.32 61.4087 15.808 61.3714 16.304C61.3394 16.8 61.294 17.3413 61.2354 17.928C61.182 18.504 61.1234 18.984 61.0594 19.368C61.0007 19.752 60.9127 20.0853 60.7954 20.368C60.678 20.6453 60.5074 20.92 60.2834 21.192ZM69.6106 23L73.2426 11.48H76.0666L79.6986 23H77.7146L74.4186 12.664H74.8506L71.5946 23H69.6106ZM71.6346 20.504V18.704H77.6826V20.504H71.6346ZM90.1801 23.24C89.0281 23.24 88.0415 22.9893 87.2201 22.488C86.3988 21.9813 85.7668 21.2773 85.3241 20.376C84.8868 19.4747 84.6681 18.4293 84.6681 17.24C84.6681 16.0507 84.8868 15.0053 85.3241 14.104C85.7668 13.2027 86.3988 12.5013 87.2201 12C88.0415 11.4933 89.0281 11.24 90.1801 11.24C91.5081 11.24 92.6148 11.5733 93.5001 12.24C94.3855 12.9013 95.0068 13.7947 95.3641 14.92L93.4201 15.456C93.1961 14.704 92.8148 14.1173 92.2761 13.696C91.7375 13.2693 91.0388 13.056 90.1801 13.056C89.4068 13.056 88.7615 13.2293 88.2441 13.576C87.7321 13.9227 87.3455 14.4107 87.0841 15.04C86.8281 15.664 86.6975 16.3973 86.6921 17.24C86.6921 18.0827 86.8201 18.8187 87.0761 19.448C87.3375 20.072 87.7268 20.5573 88.2441 20.904C88.7615 21.2507 89.4068 21.424 90.1801 21.424C91.0388 21.424 91.7375 21.2107 92.2761 20.784C92.8148 20.3573 93.1961 19.7707 93.4201 19.024L95.3641 19.56C95.0068 20.6853 94.3855 21.5813 93.5001 22.248C92.6148 22.9093 91.5081 23.24 90.1801 23.24ZM106.393 24.816V23H97.6006V11.48H99.5286V21.288H105.113V11.744H107.041V21.288H108.321V24.816H106.393ZM110.081 23V11.48H117.521V13.288H112.009V16.128H116.561V17.936H112.009V21.192H117.521V23H110.081ZM119.92 23V11.48H121.848V16.328H127.304V11.48H129.224V23H127.304V18.136H121.848V23H119.92Z" fill="white"/>
<path d="M143.12 23V11.48H147.88C147.992 11.48 148.136 11.4853 148.312 11.496C148.488 11.5013 148.651 11.5173 148.8 11.544C149.467 11.6453 150.016 11.8667 150.448 12.208C150.885 12.5493 151.208 12.9813 151.416 13.504C151.629 14.0213 151.736 14.5973 151.736 15.232C151.736 15.8613 151.629 16.4373 151.416 16.96C151.203 17.4773 150.877 17.9067 150.44 18.248C150.008 18.5893 149.461 18.8107 148.8 18.912C148.651 18.9333 148.485 18.9493 148.304 18.96C148.128 18.9707 147.987 18.976 147.88 18.976H145.048V23H143.12ZM145.048 17.176H147.8C147.907 17.176 148.027 17.1707 148.16 17.16C148.293 17.1493 148.416 17.128 148.528 17.096C148.848 17.016 149.099 16.8747 149.28 16.672C149.467 16.4693 149.597 16.24 149.672 15.984C149.752 15.728 149.792 15.4773 149.792 15.232C149.792 14.9867 149.752 14.736 149.672 14.48C149.597 14.2187 149.467 13.9867 149.28 13.784C149.099 13.5813 148.848 13.44 148.528 13.36C148.416 13.328 148.293 13.3093 148.16 13.304C148.027 13.2933 147.907 13.288 147.8 13.288H145.048V17.176ZM157.643 23V21.36C157.051 21.4613 156.485 21.4373 155.947 21.288C155.413 21.1387 154.939 20.8747 154.523 20.496C154.107 20.112 153.779 19.6213 153.539 19.024C153.299 18.4213 153.179 17.7173 153.179 16.912C153.179 16.1067 153.299 15.4 153.539 14.792C153.779 14.184 154.107 13.6853 154.523 13.296C154.939 12.9067 155.413 12.6347 155.947 12.48C156.485 12.3253 157.051 12.2987 157.643 12.4V11.48H159.555V12.4C160.147 12.2987 160.712 12.3253 161.251 12.48C161.789 12.6347 162.267 12.9067 162.683 13.296C163.099 13.6853 163.427 14.184 163.667 14.792C163.912 15.4 164.035 16.1067 164.035 16.912C164.035 17.7173 163.912 18.4213 163.667 19.024C163.427 19.6213 163.099 20.112 162.683 20.496C162.267 20.8747 161.789 21.1387 161.251 21.288C160.712 21.4373 160.147 21.4613 159.555 21.36V23H157.643ZM157.643 19.592V14.136C157.179 14.0613 156.784 14.0933 156.459 14.232C156.139 14.3653 155.88 14.5707 155.683 14.848C155.491 15.12 155.352 15.4373 155.267 15.8C155.181 16.1627 155.139 16.5333 155.139 16.912C155.139 17.2907 155.181 17.656 155.267 18.008C155.352 18.36 155.491 18.6693 155.683 18.936C155.88 19.1973 156.139 19.3893 156.459 19.512C156.784 19.6347 157.179 19.6613 157.643 19.592ZM159.555 19.592C160.024 19.6613 160.419 19.6347 160.739 19.512C161.059 19.384 161.317 19.1893 161.515 18.928C161.712 18.6667 161.853 18.3653 161.939 18.024C162.029 17.6827 162.075 17.3307 162.075 16.968C162.075 16.6053 162.029 16.2427 161.939 15.88C161.853 15.512 161.712 15.1867 161.515 14.904C161.317 14.616 161.059 14.3973 160.739 14.248C160.419 14.0987 160.024 14.0613 159.555 14.136V19.592Z" fill="#35395F"/>
</svg>
